<?xml version="1.0" standalone="no"?>
<!DOCTYPE svg PUBLIC "-//W3C//DTD SVG 20010904//EN"
 "http://www.w3.org/TR/2001/REC-SVG-20010904/DTD/svg10.dtd">
<svg version="1.0" xmlns="http://www.w3.org/2000/svg"
 width="1024.000000pt" height="1024.000000pt" viewBox="0 0 1024.000000 1024.000000"
 preserveAspectRatio="xMidYMid meet">

<g transform="translate(0.000000,1024.000000) scale(0.100000,-0.100000)"
fill="#000000" stroke="none">
<path d="M0 5120 l0 -5120 5120 0 5120 0 0 5120 0 5120 -5120 0 -5120 0 0
-5120z m5705 3510 l580 -580 885 -2 885 -3 3 -876 2 -876 411 -409 c226 -225
488 -489 582 -587 l171 -178 -582 -582 -582 -582 -2 -883 -3 -883 -880 1 -880
0 -585 -585 -585 -585 -585 585 -585 585 -885 0 -885 0 -5 879 -5 879 -540
544 c-297 300 -558 564 -580 587 l-39 41 582 583 582 582 0 883 0 882 888 0
887 0 580 580 c319 319 582 580 585 580 3 0 266 -261 585 -580z"/>
<path d="M4626 8094 l-480 -484 -758 0 -758 0 0 -757 1 -758 -492 -488 -492
-489 491 -491 492 -492 0 -753 0 -752 757 0 758 0 490 -490 490 -490 490 490
490 490 752 0 753 0 0 753 0 754 489 494 489 494 -489 490 -489 490 0 753 0
752 -756 0 -756 0 -490 483 c-269 265 -493 483 -496 483 -4 1 -223 -216 -486
-482z m761 -819 c557 -73 1041 -331 1391 -740 258 -301 421 -640 493 -1025 27
-144 37 -485 20 -641 -46 -406 -183 -749 -430 -1079 -76 -102 -267 -297 -371
-380 -314 -250 -685 -411 -1069 -464 -149 -21 -450 -22 -594 -1 -473 66 -902
280 -1242 620 -358 356 -578 806 -636 1298 -17 149 -7 494 20 639 128 698 556
1261 1193 1568 228 110 473 181 713 208 131 15 384 13 512 -3z"/>
<path d="M4900 6940 c-535 -66 -1019 -357 -1300 -782 -241 -365 -330 -679
-317 -1120 6 -214 23 -313 84 -503 212 -660 807 -1152 1511 -1251 161 -22 443
-15 596 16 303 60 577 189 811 380 90 74 255 245 322 335 397 530 474 1270
194 1860 -163 343 -408 620 -713 806 -201 122 -404 198 -658 245 -101 18 -422
27 -530 14z m285 -195 c25 -24 25 -27 25 -196 0 -164 -1 -174 -22 -196 -28
-30 -95 -32 -129 -4 -23 19 -24 24 -27 190 l-3 171 30 30 c38 39 91 41 126 5z
m1088 -515 c31 -34 35 -75 13 -119 -8 -15 -217 -227 -463 -472 l-449 -444 9
-43 c11 -58 -7 -141 -43 -190 -100 -138 -279 -161 -403 -52 -62 55 -87 110
-87 193 0 37 -4 67 -9 67 -5 0 -33 19 -63 43 -29 24 -179 139 -333 257 -154
117 -294 226 -312 243 -38 36 -48 68 -33 112 14 42 48 65 97 65 34 0 72 -26
373 -255 184 -141 347 -268 362 -284 l26 -29 40 19 c52 26 130 34 187 20 l46
-12 457 452 c251 248 466 455 477 460 33 14 78 1 108 -31z m-2448 -1036 c20
-8 45 -56 45 -88 0 -14 -11 -38 -24 -53 l-24 -28 -167 0 -167 0 -24 28 c-13
15 -24 39 -24 53 0 30 24 80 42 87 19 8 323 8 343 1z m2952 -16 c17 -16 23
-32 23 -62 -1 -47 -16 -71 -54 -86 -34 -13 -286 -13 -320 0 -27 10 -56 56 -56
89 0 11 12 33 26 50 l26 31 166 0 c156 0 167 -1 189 -22z m-1589 -1300 c21
-21 22 -28 22 -195 0 -160 -2 -175 -20 -193 -26 -26 -101 -28 -125 -3 -29 29
-35 62 -35 203 0 155 8 186 55 206 36 16 72 10 103 -18z"/>
<path d="M5077 5158 c-47 -37 -19 -111 43 -111 36 0 70 31 70 64 0 46 -73 76
-113 47z"/>
</g>
</svg>
